# Wavefront Obj file
# 
# verts: 8 uv-s: 24
mtllib Woll.mtl

g Wall
#pivot 0.000000 0.000000 0.000000

v -200.000000 0.000000 10.000002
v -200.000000 300.000000 10.000002
v -200.000000 0.000000 -10.000002
v -200.000000 300.000000 -10.000002
v 200.000000 0.000000 10.000002
v 200.000000 300.000000 10.000002
v 200.000000 0.000000 -10.000002
v 200.000000 300.000000 -10.000002
# 8 positions

vt 0.969697 0.500000
vt 0.969697 0.000000
vt 1.000000 0.000000
vt 1.000000 0.500000
vt 0.909091 0.666667
vt 0.454545 0.666667
vt 0.454545 0.000000
vt 0.909091 0.000000
vt 1.000000 0.500000
vt 1.000000 1.000000
vt 0.969697 1.000000
vt 0.969697 0.500000
vt 0.000000 0.000000
vt 0.454545 0.000000
vt 0.454545 0.666667
vt 0.000000 0.666667
vt 0.939394 0.666667
vt 0.939394 0.000000
vt 0.969697 0.000000
vt 0.969697 0.666667
vt 0.939394 0.000000
vt 0.939394 0.666667
vt 0.909091 0.666667
vt 0.909091 0.000000
# 24 texture coordinates

vn -1.000000 0.000000 0.000000
vn -1.000000 0.000000 0.000000
vn -1.000000 0.000000 0.000000
vn -1.000000 0.000000 0.000000
vn 0.000000 0.000000 -1.000000
vn 0.000000 0.000000 -1.000000
vn 0.000000 0.000000 -1.000000
vn 0.000000 0.000000 -1.000000
vn 1.000000 0.000000 0.000000
vn 1.000000 0.000000 0.000000
vn 1.000000 0.000000 0.000000
vn 1.000000 0.000000 0.000000
vn 0.000000 0.000000 1.000000
vn 0.000000 0.000000 1.000000
vn 0.000000 0.000000 1.000000
vn 0.000000 0.000000 1.000000
vn 0.000000 -1.000000 0.000000
vn 0.000000 -1.000000 0.000000
vn 0.000000 -1.000000 0.000000
vn 0.000000 -1.000000 0.000000
vn 0.000000 1.000000 0.000000
vn 0.000000 1.000000 0.000000
vn 0.000000 1.000000 0.000000
vn 0.000000 1.000000 0.000000
# 24 normals

usemtl 
s 1
f 1/1/1 2/2/2 4/3/3 3/4/4
s 2
f 3/5/5 4/6/6 8/7/7 7/8/8
s 3
f 7/9/9 8/10/10 6/11/11 5/12/12
s 4
f 5/13/13 6/14/14 2/15/15 1/16/16
s 5
f 3/17/17 7/18/18 5/19/19 1/20/20
s 6
f 8/21/21 4/22/22 2/23/23 6/24/24

# 6 faces
